<svg width="38" height="33" viewBox="0 0 38 33" fill="none" xmlns="http://www.w3.org/2000/svg">
<path d="M29.95 30.0257C27.3007 30.0257 24.65 30.0257 22.0007 30.0257V30.033C19.3996 30.033 16.7985 30.0418 14.1974 30.0301C12.8968 30.0242 11.8035 29.5163 11.0868 28.677C10.4548 29.1689 9.82715 29.6418 9.21409 30.1162C10.3862 31.5861 12.183 32.4268 14.3696 32.4327C16.8992 32.44 19.4288 32.4327 21.9569 32.4327C23.1976 32.4327 24.4383 32.4546 25.6776 32.4268C27.4744 32.3874 29.2756 32.5713 31.0666 32.2998C31.2126 32.2779 31.3585 32.2502 31.5016 32.2196C31.0403 31.4445 30.5893 30.6957 30.0317 30.0228C30.004 30.0228 29.9777 30.0228 29.95 30.0228V30.0257Z" fill="#00AA30"/>
<path d="M37.4001 23.2879C36.6527 19.5483 33.7042 17.0479 29.8434 16.9048C29.4318 16.8902 29.1895 16.7691 28.9881 16.3896C28.7895 16.0174 28.575 15.67 28.3443 15.3416C27.7868 15.8948 27.1547 16.3721 26.5154 16.8246C26.7957 17.2552 27.0219 17.7281 27.2029 18.2361C27.5736 19.2797 27.8773 19.4578 28.9997 19.3264C32.2767 18.9411 34.996 21.24 35.177 24.5491C35.3273 27.2874 32.8518 29.9527 30.0945 30.0228C30.0726 30.0228 30.0521 30.0228 30.0303 30.0228C30.5893 30.6957 31.0403 31.4445 31.5001 32.2196C35.4412 31.3686 38.1956 27.2713 37.3986 23.2865L37.4001 23.2879Z" fill="#FF1B19"/>
<path d="M10.1804 26.1299C10.176 23.9667 11.8926 22.2924 14.1682 22.2384C15.3578 22.2107 15.7825 21.7524 15.692 20.6474C15.495 18.2142 16.4408 16.3078 18.5063 15.0467C20.5542 13.7958 22.6692 13.8761 24.7229 15.0978C25.4747 15.5444 26.0629 16.1312 26.5139 16.826C27.1547 16.3735 27.7853 15.8962 28.3429 15.343C26.9329 13.3272 24.939 12.1434 22.3612 11.8501C22.0576 11.815 21.8343 11.7289 21.6489 11.5888C20.6957 11.5917 19.782 11.8515 18.8741 12.1945C18.8026 12.2661 18.68 12.3361 18.499 12.412C15.4424 13.7053 13.7128 16.0363 13.3245 19.3308C13.2719 19.7818 13.1085 19.9818 12.6954 20.0577C12.0181 20.1818 11.3831 20.4372 10.8153 20.8167C10.5862 20.97 10.3964 21.0036 10.2096 20.9583C9.50748 21.5217 8.94405 22.1888 8.51783 23.0544C8.52221 23.1989 8.47696 23.358 8.38209 23.555C7.8858 24.5768 7.65372 25.6715 7.82742 26.8145C8.02593 28.1165 8.5047 29.2331 9.21117 30.1206C9.82423 29.6462 10.4519 29.1733 11.0839 28.6814C10.5117 28.0128 10.1804 27.1341 10.1789 26.1328L10.1804 26.1299Z" fill="#0086FF"/>
<path d="M10.211 20.9569C10.0694 20.9218 9.92932 20.8401 9.77606 20.7292C8.04345 19.4651 7.09613 17.604 7.10197 15.4146C7.11073 12.6441 8.86669 10.208 11.4882 9.33509C14.1434 8.44908 17.0583 9.3599 18.7208 11.5611C18.9485 11.8632 19.0347 12.0355 18.8756 12.196C19.7835 11.853 20.6972 11.5946 21.6504 11.5903C21.4781 11.4589 21.338 11.2808 21.2008 11.0487C18.0538 5.71952 10.6504 5.09187 6.76625 9.80948C3.56522 13.6951 4.13303 19.1542 8.10475 22.4092C8.37625 22.6326 8.51346 22.8209 8.52075 23.0544C8.94697 22.1888 9.5104 21.5218 10.2125 20.9583L10.211 20.9569Z" fill="#FFB900"/>
<path d="M14.7097 2.33166C14.7097 2.69511 14.7287 3.06003 14.7053 3.42202C14.663 4.07303 14.2718 4.4613 13.6514 4.52406C13.0544 4.58391 12.5874 4.26278 12.4531 3.68038C12.2385 2.7535 12.2429 1.79742 12.4472 0.867622C12.5757 0.28084 13.0384 -0.0373646 13.6339 0.0035058C14.2324 0.0443762 14.6177 0.425347 14.6907 1.02527C14.7418 1.4544 14.7009 1.89668 14.7009 2.33166C14.7039 2.33166 14.7068 2.33166 14.7112 2.33166H14.7097Z" fill="#FFB900"/>
<path d="M27.1051 8.38486C27.0876 8.75999 26.892 9.11177 26.5125 9.33948C25.9111 9.70147 25.3083 10.0678 24.6864 10.3933C24.0238 10.7378 23.3509 10.5597 23.0312 10.0036C22.6984 9.42414 22.8633 8.78481 23.5056 8.38194C24.142 7.98345 24.7886 7.59227 25.4659 7.27406C26.2541 6.90331 27.1051 7.47257 27.1051 8.38632V8.38486Z" fill="#FFB900"/>
<path d="M4.20747 9.4402C4.19433 10.2985 3.38277 10.8269 2.55806 10.4401C1.83845 10.1043 1.15095 9.68688 0.489726 9.2446C-0.0284521 8.89866 -0.146684 8.17905 0.189037 7.69883C0.546652 7.18795 1.05169 6.96462 1.63994 7.26239C2.34933 7.62292 3.03683 8.03163 3.71557 8.44763C4.0688 8.66366 4.22353 9.01835 4.20747 9.43874V9.4402Z" fill="#FFB900"/>
<path d="M4.20747 21.5101C4.22061 21.9626 4.02647 22.3129 3.64696 22.5406C3.02661 22.9143 2.40479 23.2909 1.76109 23.6222C1.14073 23.9419 0.499943 23.7594 0.177359 23.2296C-0.158362 22.6764 0.00220057 21.9874 0.613797 21.5962C1.22393 21.2065 1.84867 20.8299 2.50113 20.519C3.36525 20.1088 4.20017 20.6182 4.20747 21.5086V21.5101Z" fill="#FFB900"/>
</svg>
