<svg width="106" height="108" viewBox="0 0 106 108" fill="none" xmlns="http://www.w3.org/2000/svg">
<g clip-path="url(#clip0_2_103)">
<path d="M39.2002 67.8814C35.813 67.878 32.7808 67.8717 32.1754 67.8691C29.2281 67.856 26.7506 66.7164 25.1264 64.8336C23.6941 65.9371 22.2717 66.998 20.8824 68.0623C23.5386 71.3596 27.6106 73.2457 32.5658 73.2588C35.0439 73.2659 37.5221 73.2669 40 73.2657C44 73.2588 44.5446 71.8675 45 70.5C45.4375 69.1863 45.5 68.0623 39.2002 67.8814Z" fill="#999999"/>
<path d="M23.0722 59.1196C23.0623 54.2669 26.9523 50.511 32.1093 50.3899C34.8052 50.3277 35.7678 49.2995 35.5627 46.8207C35.1161 41.3622 37.2596 37.0857 41.9402 34.2566C46.5811 31.4503 51.3742 31.6304 56.0283 34.3712C57.7319 35.3732 59.9779 38.4413 61 40C62.4521 38.9849 64.7364 40.241 66 39C64 33.5 56.5179 27.7436 50.6762 27.0855C49.9882 27.0069 49.4821 26.8137 49.062 26.4993C46.902 26.5059 44.8313 27.0887 42.7738 27.8582C42.6117 28.0187 42.3338 28.1759 41.9237 28.3461C34.997 31.2473 31.0772 36.4767 30.1973 43.8671C30.0783 44.879 29.7078 45.3276 28.7717 45.4978C27.2368 45.7762 25.7979 46.3492 24.5111 47.2006C23.9918 47.5444 23.5618 47.6197 23.1384 47.5182C21.5473 48.7821 20.2705 50.2786 19.3046 52.2203C19.3145 52.5445 19.212 52.9014 18.997 53.3435C17.8723 55.6356 17.3464 58.0915 17.74 60.6554C18.1899 63.5762 19.2748 66.0812 20.8758 68.0721C22.2651 67.0079 23.6875 65.9469 25.1198 64.8434C23.8231 63.3437 23.0722 61.3725 23.0689 59.1262L23.0722 59.1196Z" fill="#999999"/>
<path d="M23.1417 47.5149C22.8208 47.4363 22.5033 47.2529 22.156 47.0041C18.2295 44.1684 16.0828 39.9934 16.096 35.0817C16.1158 28.8668 20.0952 23.4017 26.0361 21.4435C32.053 19.4559 38.6588 21.4992 42.4265 26.4371C42.9425 27.1149 43.1376 27.5013 42.7771 27.8615C44.8346 27.092 46.9053 26.5124 49.0653 26.5026C48.675 26.2079 48.3574 25.8084 48.0465 25.2878C40.9148 13.3327 24.1374 11.9246 15.3352 22.5077C8.08107 31.2244 9.36782 43.4709 18.3685 50.773C18.9837 51.274 19.2947 51.6964 19.3112 52.2203C20.2771 50.2786 21.5539 48.7821 23.145 47.5182L23.1417 47.5149Z" fill="#999999"/>
<path d="M33.3365 5.7326C33.3365 6.54795 33.3795 7.36657 33.3266 8.17864C33.2306 9.63905 32.3441 10.5101 30.9383 10.6509C29.5854 10.7851 28.5269 10.0647 28.2226 8.75822C27.7363 6.67893 27.7462 4.53415 28.2093 2.44831C28.5004 1.13197 29.549 0.418132 30.8986 0.509818C32.2548 0.601503 33.1281 1.45614 33.2935 2.80195C33.4093 3.76465 33.3166 4.75681 33.3166 5.7326C33.3233 5.7326 33.3299 5.7326 33.3398 5.7326H33.3365Z" fill="#999999"/>
<path d="M61.4267 19.3119C61.387 20.1534 60.9438 20.9426 60.0837 21.4534C58.7209 22.2654 57.3548 23.0873 55.9456 23.8175C54.4439 24.5903 52.9189 24.1908 52.1945 22.9433C51.4403 21.6433 51.8141 20.2091 53.2696 19.3053C54.7118 18.4114 56.1772 17.5338 57.712 16.82C59.4983 15.9883 61.4267 17.2653 61.4267 19.3151V19.3119Z" fill="#999999"/>
<path d="M9.53652 21.6793C9.50675 23.6047 7.66759 24.79 5.79865 23.9223C4.16789 23.1692 2.60989 22.2327 1.11143 21.2405C-0.0628526 20.4644 -0.330788 18.8501 0.430017 17.7728C1.24044 16.6268 2.38495 16.1258 3.71802 16.7937C5.32563 17.6025 6.88363 18.5194 8.42178 19.4526C9.22228 19.9372 9.57291 20.7329 9.53652 21.676V21.6793Z" fill="#999999"/>
<path d="M9.53652 48.7559C9.56629 49.771 9.12635 50.5569 8.26631 51.0677C6.86048 51.906 5.45133 52.7508 3.99257 53.4941C2.58674 54.2112 1.13459 53.8019 0.403556 52.6133C-0.357249 51.3722 0.00661399 49.8267 1.3926 48.9491C2.77528 48.0748 4.19104 47.23 5.66965 46.5326C7.6279 45.6124 9.51999 46.7552 9.53652 48.7527V48.7559Z" fill="#999999"/>
<path d="M67.1295 39.1126C81.4425 39.1093 93.5261 49.735 94.9617 63.6842C95.6994 70.8553 93.9495 77.4239 89.5765 83.2263C88.862 84.1726 88.8951 84.7129 89.7254 85.5545C94.6144 90.5022 99.4438 95.5089 104.287 100.499C104.627 100.85 104.971 101.206 105.252 101.603C106.38 103.181 106.212 105.133 104.862 106.462C103.585 107.719 101.422 107.867 99.9367 106.737C99.3744 106.308 98.908 105.755 98.4118 105.244C93.6882 100.385 88.948 95.5416 84.2608 90.6463C83.4471 89.7982 82.8814 89.641 81.7932 90.2893C64.5527 100.591 42.658 90.5382 39.499 70.911C37.0843 55.9041 47.8546 41.5291 63.1137 39.3483C64.4534 39.1584 65.7898 39.1322 67.1328 39.1093L67.1295 39.1126ZM67.1592 86.8511C78.439 86.8511 87.6216 77.8693 87.5588 66.7688C87.4992 55.6945 78.7863 46.5817 67.2386 46.5587C54.8276 46.5325 46.687 56.6769 46.7994 66.7557C46.9251 77.9577 55.8299 86.8511 67.1592 86.8511Z" fill="#5E5D5D"/>
</g>
<defs>
<clipPath id="clip0_2_103">
<rect width="106" height="107" fill="white" transform="translate(0 0.5)"/>
</clipPath>
</defs>
</svg>
